<svg t="1697091711782" class="icon" viewBox="0 0 1024 1024" version="1.1" xmlns="http://www.w3.org/2000/svg" p-id="8548" width="128" height="128"><path d="M512 928a296.16 296.16 0 0 1-240-469.28l1.76-2.4L194.72 352a28.8 28.8 0 0 1-5.6-16V124.48A28.16 28.16 0 0 1 217.28 96h590.24a28.16 28.16 0 0 1 28.16 28.16V336a28.32 28.32 0 0 1-5.6 16L752 456.32l1.6 2.4a293.76 293.76 0 0 1 55.84 172.64A296.8 296.8 0 0 1 512 928z m0-545.44a249.12 249.12 0 1 0 249.28 248.8A249.44 249.44 0 0 0 512 382.24zM240 144a4.32 4.32 0 0 0-4.48 4.32V324.8a13.44 13.44 0 0 0 2.56 7.68l66.24 87.36 3.2-2.88a295.36 295.36 0 0 1 408.32 0l3.04 2.88 66.24-87.36a13.44 13.44 0 0 0 2.56-7.68v-176A4.32 4.32 0 0 0 784 144h-143.04v145.28a23.52 23.52 0 0 1-47.04 0V144h-163.2v144A23.52 23.52 0 1 1 384 288V144z" p-id="8549"></path><path d="M430.56 756h-40.96v-153.44h100.48v-34.88h-121.12V528h117.6c-3.84-10.08-7.68-19.52-11.36-28.16l48-11.2q7.2 18.88 13.92 39.36H656v39.2h-122.72v34.72h107.52v106.72a55.68 55.68 0 0 1-4 22.88 35.2 35.2 0 0 1-12.32 16 44.16 44.16 0 0 1-18.72 7.36c-7.2 0.96-23.68 1.6-49.6 1.92-3.2-13.12-6.88-26.24-11.2-39.04 11.04 0 22.4 1.28 34.08 1.28s20.96-6.72 20.96-20.16V640h-66.72v147.52h-43.2V640h-59.52z m0 0" p-id="8550"></path></svg>