<svg t="1691715784524" class="icon" viewBox="0 0 1024 1024" version="1.1" xmlns="http://www.w3.org/2000/svg" p-id="73987" width="16" height="16"><path d="M775.1 400.3c55.6 0 101.3-46.1 101.3-102.3 0-56.2-45.6-102.3-101.3-102.3-55.6 0-101.2 46.1-101.2 102.3 0 56.2 45.6 102.3 101.2 102.3z m-527.6 0c55.6 0 101.2-46.1 101.2-102.3 0-56.2-45.6-102.3-101.2-102.3S146.3 241.8 146.3 298c-0.1 56.2 45.6 102.3 101.2 102.3z m57 299.8V524.2c0-34.6 11.4-66.3 31.4-92.2-15.7-10.1-34.2-17.3-55.6-17.3h-67C157.6 414.7 112 460.8 112 517v111c0 15.9 11.4 30.3 27.1 33.2l17.1 2.9 7.1 109.5c1.4 17.3 15.7 31.7 34.2 31.7h99.8c18.5 0 32.8-14.4 34.2-31.7l1.4-31.7c-15.6-5.8-28.4-23.1-28.4-41.8z m504.8-285.4h-67c-20 0-39.9 5.8-55.6 17.3 20 25.9 31.4 57.7 31.4 92.2v175.9c0 18.7-11.4 36-28.5 43.2L691 775c1.4 17.3 15.7 31.7 34.2 31.7h101.2c18.5 0 32.8-14.4 34.2-31.7l7.1-109.5 17.1-2.9c15.7-2.9 27.1-17.3 27.1-33.2v-111c-1.3-57.6-47-103.7-102.6-103.7z m-253.8-10.1h-89.8c-69.9 0-126.9 57.7-126.9 129.7v147c0 18.7 12.8 34.6 29.9 37.5l27.1 5.8 10 151.3c1.4 20.2 18.5 36 38.5 36h134c20 0 37.1-15.9 38.5-36l8.6-151.3 27.1-5.8c17.1-2.9 31.4-20.2 31.4-37.5v-147c-0.1-70.6-57.1-129.7-128.4-129.7z m-44.2-33.1c69.9 0 128.3-57.7 128.3-129.7 0-70.6-57-128.3-128.3-129.7-69.9 0-126.9 57.7-128.3 129.7 1.4 72 58.4 129.7 128.3 129.7z m0 0" p-id="73988" fill="#1da1ff"></path></svg>