<svg t="1691716599995" class="icon" viewBox="0 0 1024 1024" version="1.1" xmlns="http://www.w3.org/2000/svg" p-id="193384" width="128" height="128"><path d="M262.863594 509.471308c-117.283161 0-212.650988-95.367827-212.650988-212.650988S145.580433 84.169332 262.863594 84.169332s212.650988 95.367827 212.650987 212.650988-95.367827 212.650988-212.650987 212.650988z m0-355.943556c-78.991533 0-143.292568 64.301035-143.292569 143.292568 0 78.991533 64.301035 143.292568 143.292569 143.292568 78.991533 0 143.292568-64.301035 143.292568-143.292568 0-78.991533-64.301035-143.292568-143.292568-143.292568zM502.246472 912.135466H23.480715l239.382879-397.606774 239.382878 397.606774z m-355.943556-69.35842h233.241769l-116.560677-193.625588-116.681092 193.625588zM761.136406 509.471308c-117.283161 0-212.650988-95.367827-212.650987-212.650988S643.853246 84.169332 761.136406 84.169332s212.650988 95.367827 212.650988 212.650988-95.367827 212.650988-212.650988 212.650988z m0-355.943556c-78.991533 0-143.292568 64.301035-143.292568 143.292568 0 78.991533 64.301035 143.292568 143.292568 143.292568 78.991533 0 143.292568-64.301035 143.292569-143.292568 0-78.991533-64.301035-143.292568-143.292569-143.292568zM521.753528 542.223895h478.645343L761.136406 939.830668 521.753528 542.223895z m355.943556 69.478833H644.575729l116.560677 193.625588 116.560678-193.625588z" p-id="193385" fill="#1da1ff"></path></svg>