<svg t="1691717392271" class="icon" viewBox="0 0 1024 1024" version="1.1" xmlns="http://www.w3.org/2000/svg" p-id="325663" width="16" height="16"><path d="M75.09333333 147.91111111V803.27111111h412.63407446V293.54666667a145.63555555 145.63555555 0 0 0-145.63555556-145.63555556H75.09333333z m0-48.54518556h266.9985189a194.18074112 194.18074112 0 0 1 194.18073998 194.18074112V803.27111111a48.54518557 48.54518557 0 0 1-48.54518442 48.54518556H75.09333333a48.54518557 48.54518557 0 0 1-48.54518556-48.54518556V147.91111111a48.54518557 48.54518557 0 0 1 48.54518556-48.54518556z" fill="#1da1ff" p-id="325664"></path><path d="M948.90666667 147.91111111V803.27111111h-412.63407446V293.54666667a145.63555555 145.63555555 0 0 1 145.63555556-145.63555556H948.90666667z m0-48.54518556h-266.9985189a194.18074112 194.18074112 0 0 0-194.18073998 194.18074112V803.27111111a48.54518557 48.54518557 0 0 0 48.54518442 48.54518556H948.90666667a48.54518557 48.54518557 0 0 0 48.54518556-48.54518556V147.91111111a48.54518557 48.54518557 0 0 0-48.54518556-48.54518556z" fill="#1da1ff" p-id="325665"></path><path d="M123.6385189 900.3614811h776.7229622v48.54518557H123.6385189zM220.72888889 366.36444445h145.63555556v48.54518556H220.72888889zM657.63555555 366.36444445h145.63555556v48.54518556h-145.63555556zM220.72888889 512h145.63555556v48.54518557H220.72888889zM657.63555555 512h145.63555556v48.54518557h-145.63555556z" fill="#1da1ff" p-id="325666"></path></svg>