<svg t="1691717925259" class="icon" viewBox="0 0 1536 1024" version="1.1" xmlns="http://www.w3.org/2000/svg" p-id="335991" width="16" height="16"><path d="M950.722344 1023.854832H182.83122a182.83122 182.83122 0 0 1-182.83122-182.83122V182.83122a182.83122 182.83122 0 0 1 182.83122-182.83122h987.288588a182.83122 182.83122 0 0 1 182.83122 182.83122v161.622798a36.566244 36.566244 0 0 1-73.132488 0V182.83122a109.698732 109.698732 0 0 0-109.698732-109.698732H182.83122a109.698732 109.698732 0 0 0-109.698732 109.698732v658.192392a109.698732 109.698732 0 0 0 109.698732 109.698732h767.891124a36.566244 36.566244 0 0 1 0 73.132488z" fill="#1da1ff" p-id="335992"></path><path d="M365.66244 438.794928a36.566244 36.566244 0 0 1-25.962033-10.604211l-146.264976-146.264976a36.712509 36.712509 0 0 1 51.924066-51.924066L365.66244 350.67028l120.302943-120.668605a36.712509 36.712509 0 0 1 51.924066 51.924066l-146.264976 146.264976A36.566244 36.566244 0 0 1 365.66244 438.794928z" fill="#1da1ff" p-id="335993"></path><path d="M548.49366 475.361172H182.83122a36.566244 36.566244 0 0 1 0-73.132488h365.66244a36.566244 36.566244 0 0 1 0 73.132488zM548.49366 621.626148H182.83122a36.566244 36.566244 0 0 1 0-73.132488h365.66244a36.566244 36.566244 0 0 1 0 73.132488z" fill="#1da1ff" p-id="335994"></path><path d="M365.66244 804.457368a36.566244 36.566244 0 0 1-36.566244-36.566244V402.228684a36.566244 36.566244 0 0 1 73.132488 0v365.66244a36.566244 36.566244 0 0 1-36.566244 36.566244zM1133.553564 365.66244H731.32488a36.566244 36.566244 0 0 1 0-73.132488h402.228684a36.566244 36.566244 0 0 1 0 73.132488zM950.722344 731.32488h-219.397464a36.566244 36.566244 0 0 1 0-73.132488h219.397464a36.566244 36.566244 0 0 1 0 73.132488zM950.722344 548.49366h-219.397464a36.566244 36.566244 0 0 1 0-73.132488h219.397464a36.566244 36.566244 0 0 1 0 73.132488zM1499.216004 1023.854832a36.566244 36.566244 0 0 1-17.91746-4.753612L1316.384784 926.954285l-164.91376 92.146935a36.566244 36.566244 0 0 1-36.566244 0A36.566244 36.566244 0 0 1 1096.98732 987.288588v-292.529952a36.566244 36.566244 0 0 1 73.132488 0v230.001675l128.347516-73.132488a36.566244 36.566244 0 0 1 36.566244 0l128.347517 73.132488V694.758636a36.566244 36.566244 0 0 1 73.132488 0v292.529952a36.566244 36.566244 0 0 1-17.91746 31.44697A38.760219 38.760219 0 0 1 1499.216004 1023.854832z" fill="#1da1ff" p-id="335995"></path><path d="M1316.384784 914.1561a219.397464 219.397464 0 1 1 219.397464-219.397464 219.397464 219.397464 0 0 1-219.397464 219.397464z m0-365.66244a146.264976 146.264976 0 1 0 146.264976 146.264976 146.264976 146.264976 0 0 0-146.264976-146.264976z" fill="#1da1ff" p-id="335996"></path><path d="M1188.40293 895.872978m-54.849366 0a54.849366 54.849366 0 1 0 109.698732 0 54.849366 54.849366 0 1 0-109.698732 0Z" fill="#1da1ff" p-id="335997"></path><path d="M1444.366638 895.872978m-54.849366 0a54.849366 54.849366 0 1 0 109.698732 0 54.849366 54.849366 0 1 0-109.698732 0Z" fill="#1da1ff" p-id="335998"></path></svg>