<svg t="1691717732789" class="icon" viewBox="0 0 1024 1024" version="1.1" xmlns="http://www.w3.org/2000/svg" p-id="331637" width="16" height="16"><path d="M512 568.970378a34.899027 34.899027 0 1 0 0 69.798054c252.886486 0 441.897514 83.206919 441.897514 157.751352S764.886486 954.271135 512 954.271135s-441.897514-83.206919-441.897514-157.751351c0-37.597405 51.116973-79.609081 133.369082-109.803243a34.912865 34.912865 0 1 0-24.202379-65.508325C63.654054 663.579676 0 725.877622 0 796.47827c0 129.702054 220.146162 227.507892 512 227.507892s512-97.805838 512-227.507892-220.146162-227.507892-512-227.507892z" fill="#1da1ff" p-id="331638"></path><path d="M274.182919 542.069622c0.207568 0.498162 0.401297 0.899459 0.608865 1.300756l156.173838 348.713514a35.023568 35.023568 0 0 0 32.034594 20.756757 35.798486 35.798486 0 0 0 14.266811-3.002811 34.940541 34.940541 0 0 0 17.781622-46.107676L345.392432 529.657081c72.316541-131.307243 177.968432-124.000865 271.567568-117.510919 40.973838 2.767568 76.329514 5.299892 105.555027-5.106162 178.771027-63.654054 236.018162-283.523459 236.627027-356.421189 0.096865-9.506595 0.304432-38.496865-25.710703-48.307892a37.708108 37.708108 0 0 0-41.776432 11.194811c-1.010162 1.203892-110.771892 118.410378-321.383784 29.30854-230.289297-97.708973-448.83027 64.401297-458.032432 71.306379a34.829838 34.829838 0 0 0-10.848865 41.997837zM542.858378 107.049514c158.180324 67.002811 271.872 35.604757 337.145081 0.193729-19.179243 75.499243-71.209514 194.905946-181.081945 234.108541-15.36 5.535135-45.388108 3.404108-77.132109 1.203892-88.783568-6.199351-217.433946-15.000216-310.631783 110.813405l-133.673514-298.717405c56.790486-34.816 211.096216-112.916757 365.37427-47.602162z" fill="#1da1ff" p-id="331639"></path></svg>