<svg t="1696757854653" class="icon" viewBox="0 0 1024 1024" version="1.1" xmlns="http://www.w3.org/2000/svg" p-id="5629" width="128" height="128"><path d="M1023.200625 512.399688c0 281.380172-227.022639 511.600312-511.600313 511.600312-281.380172 0-511.600312-227.022639-511.600312-511.600312C0 301.364559 127.900078 112.711944 326.145199 35.971897c118.307572-47.962529 252.602654-47.962529 370.910226 0C892.103044 112.711944 1023.200625 301.364559 1023.200625 512.399688M316.552693 403.684621c-3.197502 79.937549 38.370023 156.677596 108.715067 198.245121 54.357533 31.97502 118.307572 31.97502 172.665105 0 70.345043-41.567525 111.912568-118.307572 111.912568-198.245121 12.790008-108.715066-67.147541-204.640125-175.862607-217.430132s-204.640125 67.147541-217.430133 175.862607c-3.197502 12.790008-3.197502 28.777518 0 41.567525m198.245121 585.142858c143.887588 0 278.18267-63.950039 370.910227-175.862608-9.592506-86.332553-92.727557-156.677596-211.035129-191.850117-92.727557 86.332553-236.615144 83.135051-326.145199-3.197502-115.11007 31.97502-198.245121 99.12256-217.430133 179.060109 89.530055 121.505074 230.220141 191.850117 383.700234 191.850118z" fill="#E5EDF1" p-id="5630"></path></svg>