<svg t="1696828527431" class="icon" viewBox="0 0 1024 1024" version="1.1" xmlns="http://www.w3.org/2000/svg" p-id="5496" width="128" height="128"><path d="M0 0m43.885714 0l936.228572 0q43.885714 0 43.885714 43.885714l0 936.228572q0 43.885714-43.885714 43.885714l-936.228572 0q-43.885714 0-43.885714-43.885714l0-936.228572q0-43.885714 43.885714-43.885714Z" fill="#E0E1E9" p-id="5497"></path><path d="M620.682971 758.432914c-3.203657-33.024-2.135771-57.526857-2.135771-88.429714 14.943086-8.521143 68.293486-59.655314 72.557714-102.268343 11.739429-1.067886 30.946743-12.785371 36.278857-59.662628 3.203657-24.502857-8.528457-39.416686-16.003657-43.6736 19.207314-58.594743 27.7504-241.839543-106.7008-259.949715C590.804114 181.013943 555.593143 168.228571 509.710629 168.228571c-183.537371 3.196343-237.955657 140.624457-197.412572 297.230629-7.460571 4.264229-19.207314 18.110171-16.003657 43.680914 5.339429 46.877257 24.546743 58.587429 36.278857 59.662629 4.271543 43.6736 57.621943 94.815086 72.557714 102.268343 0 30.895543 1.0752 54.337829-2.128457 88.429714-36.278857 98.011429-274.234514 46.869943-285.973943 261.010286h789.628343c-6.4-217.336686-249.695086-162.998857-285.973943-262.078172z" fill="#F3F3F4" p-id="5498"></path></svg>