<svg t="1692771114420" class="icon" viewBox="0 0 1024 1024" version="1.1" xmlns="http://www.w3.org/2000/svg" p-id="9547" width="16" height="16"><path d="M1024 512C1024 229.376 794.624 0 512 0 229.376 0 0 229.376 0 512 0 794.624 229.376 1024 512 1024c282.624 0 512-229.376 512-512z m-460.8 256v102.4h-102.4v-102.4h102.4z m153.6-409.6c0 45.056-18.432 86.016-47.581867 115.234133l-46.148266 47.104c-36.864 37.341867-59.869867 68.061867-59.869867 144.861867h-102.4v-25.6c0-56.32 23.074133-107.52 59.938133-144.861867l63.488-64.580266C603.067733 412.125867 614.4 386.525867 614.4 358.4c0-56.32-46.08-102.4-102.4-102.4S409.6 302.08 409.6 358.4H307.2a204.8 204.8 0 1 1 409.6 0z" fill="#4F8ECE" p-id="9548"></path></svg>