<svg t="1697092105440" class="icon" viewBox="0 0 1024 1024" version="1.1" xmlns="http://www.w3.org/2000/svg" p-id="12036" width="128" height="128"><path d="M819.8656 367.3088c-17.2032-171.22816-169.95328-296.09472-341.19168-278.89664-150.8096 15.1552-268.84096 136.62208-279.65952 287.80544H2.2016v131.328h75.7248l55.6544 113.51552-44.544 93.5424 126.8736 122.4192 82.3808-48.99328 113.5104 48.99328 15.36 100.15232h175.86688l20.0192-95.68768 131.32288-62.36672 82.38592 46.75584 115.75808-133.5296L899.072 609.9456l53.4528-109.056 69.01248-11.1616V367.3088H819.8656zM509.7984 131.328c147.55328 0 267.1616 119.61344 267.1616 267.1616s-119.60832 267.1616-267.1616 267.1616c-147.54816 0-267.1616-119.60832-267.1616-267.1616 0.41984-147.37408 119.78752-266.74176 267.1616-267.1616z m467.456 320.5632L921.6 460.8l-73.472 153.6 48.9984 73.472L828.1088 768l-73.472-37.84192-168.96 80.128-17.8176 82.3808h-102.4l-13.3632-87.04-158.0544-66.56-71.2192 42.2912-78.1312-75.66848 40.0896-84.62848L106.8544 463.0016H46.7456v-42.2912h152.2688c12.0064 171.648 160.88576 301.06112 332.53376 289.0496 158.32064-11.07456 283.00288-139.392 289.54624-297.9584h156.16v40.0896z" p-id="12037"></path><path d="M677.8368 521.78432v42.20928H355.73248V244.84864h312.47872v42.20928H398.67904v234.7264h279.15776z m-69.23776-17.02912c-17.02912-19.98848-43.68384-45.53728-73.30304-72.56576-30.35648 28.88192-62.57152 53.6832-94.78144 73.30304-7.40352-8.8832-23.69536-25.91744-33.6896-34.05824 33.6896-17.39776 66.26816-41.09312 95.89248-67.75296-27.39712-23.69536-55.53664-47.01696-80.71168-66.64192l30.73024-27.02336c24.064 18.88256 52.57216 40.72448 80.33792 63.68256 22.21568-23.69536 41.09312-48.87552 56.64256-75.1616l41.84064 16.66048c-18.51392 30.3616-40.7296 59.2384-65.536 85.89312 30.73024 25.54368 58.496 50.72384 77.00992 71.08608l-34.432 32.57856z" p-id="12038"></path></svg>