<svg t="1693374844565" class="icon" viewBox="0 0 1024 1024" version="1.1" xmlns="http://www.w3.org/2000/svg" p-id="29801" width="16" height="16"><path d="M0.000256 109.721545C0.000256 49.100775 49.152231 0 109.721801 0H767.999872c60.56957 0 109.721545 49.151975 109.721545 109.721545v161.587119l-380.927809 497.817351-57.958371 244.531078V1023.999488H109.721801A109.721545 109.721545 0 0 1 0.000256 914.277943V109.721545z" fill="#15A280" p-id="29802"></path><path d="M146.278583 255.846272c0-20.17279 16.383992-36.556782 36.556782-36.556782h365.721417a36.556782 36.556782 0 1 1 0 73.164764H182.835365a36.556782 36.556782 0 0 1-36.556782-36.607982zM146.278583 475.391762c0-20.22399 16.383992-36.607982 36.556782-36.607981h219.44309a36.556782 36.556782 0 0 1 0 73.164763H182.835365a36.556782 36.556782 0 0 1-36.556782-36.556782zM146.278583 694.783653c0-20.22399 16.383992-36.607982 36.556782-36.607982H256.000128a36.556782 36.556782 0 0 1 0 73.164763H182.835365a36.556782 36.556782 0 0 1-36.556782-36.556781z" fill="#FFFFFF" p-id="29803"></path><path d="M943.615784 512.358144a10.495995 10.495995 0 0 1-14.591993 2.252799l-85.964757-62.975969a10.444795 10.444795 0 0 1-2.252798-14.643192l49.254375-67.123167a10.444795 10.444795 0 0 1 14.591993-2.252799l85.913557 62.975969c4.607998 3.430398 5.631997 9.983995 2.252799 14.591992l-49.203176 67.174367zM690.022311 858.162771c-3.379198 4.607998-9.932795 11.263994-14.540793 14.745593l-157.798321 143.052728c-4.607998 3.430398-6.860797 1.791999-5.119997-3.635198l66.150367-212.377494c1.791999-5.478397 6.041597-13.721593 9.420795-18.380791l228.403086-311.551844a10.495995 10.495995 0 0 1 14.591992-2.252799l85.964757 62.975969c4.607998 3.430398 5.631997 9.983995 2.252799 14.591992l-229.375885 312.831844z" fill="#00E0AA" p-id="29804"></path></svg>