<?xml version="1.0" standalone="no"?><!DOCTYPE svg PUBLIC "-//W3C//DTD SVG 1.1//EN" "http://www.w3.org/Graphics/SVG/1.1/DTD/svg11.dtd"><svg t="1688555238614" class="icon" viewBox="0 0 1024 1024" version="1.1" xmlns="http://www.w3.org/2000/svg" p-id="126476" width="16" height="16" xmlns:xlink="http://www.w3.org/1999/xlink"><path d="M 0 0 m 256 0 l 512 0 q 256 0 256 256 l 0 512 q 0 256 -256 256 l -512 0 q -256 0 -256 -256 l 0 -512 q 0 -256 256 -256 Z" fill="#19c975" p-id="126477"></path><path d="M 715.632 310.72 C 661.216 254.768 588.928 224 512 224 c -76.928 0 -149.216 30.784 -203.632 86.72 C 253.952 366.624 224 440.912 224 520 s 29.952 153.36 84.368 209.28 C 362.784 785.232 435.072 816 512 816 c 76.928 0 149.216 -30.784 203.632 -86.72 C 770.048 673.376 800 599.088 800 520 s -29.952 -153.36 -84.368 -209.28 Z m -49.984 182.592 L 608 551.088 l 13.6 81.536 a 27.808 27.808 0 0 1 -10.752 27.088 a 26.336 26.336 0 0 1 -15.84 5.312 c -4.272 0 -8.544 -1.072 -12.528 -3.232 l -71.312 -38.496 l -71.296 38.496 a 26.16 26.16 0 0 1 -28.368 -2.08 a 28.016 28.016 0 0 1 -10.736 -27.088 l 13.648 -81.6 l -57.632 -57.792 a 27.904 27.904 0 0 1 -6.832 -28.384 a 26.944 26.944 0 0 1 21.76 -18.832 l 79.648 -11.872 l 35.648 -74.224 a 26.624 26.624 0 0 1 48.336 0 l 35.648 74.224 l 79.648 11.872 a 26.928 26.928 0 0 1 21.76 18.896 a 27.808 27.808 0 0 1 -6.752 28.4 Z" fill="#ffffff" p-id="126478"></path></svg>