<svg t="1692771357343" class="icon" viewBox="0 0 1024 1024" version="1.1" xmlns="http://www.w3.org/2000/svg" p-id="13460" width="16" height="16"><path d="M396.8 153.6v38.4a115.2 115.2 0 0 0 230.4 0v-38.4h320a76.8 76.8 0 0 1 76.8 76.8v640a76.8 76.8 0 0 1-76.8 76.8H76.8a76.8 76.8 0 0 1-76.8-76.8V230.4a76.8 76.8 0 0 1 76.8-76.8h320z" fill="#19c975" fill-opacity=".3" p-id="13461"></path><path d="M307.2 512m-102.4 0a102.4 102.4 0 1 0 204.8 0 102.4 102.4 0 1 0-204.8 0Z" fill="#19c975" p-id="13462"></path><path d="M166.4 678.4m51.2 0l192 0q51.2 0 51.2 51.2l0 0q0 51.2-51.2 51.2l-192 0q-51.2 0-51.2-51.2l0 0q0-51.2 51.2-51.2Z" fill="#19c975" p-id="13463"></path><path d="M563.2 422.4m25.6 0l230.4 0q25.6 0 25.6 25.6l0 0q0 25.6-25.6 25.6l-230.4 0q-25.6 0-25.6-25.6l0 0q0-25.6 25.6-25.6Z" fill="#19c975" p-id="13464"></path><path d="M563.2 563.2m25.6 0l230.4 0q25.6 0 25.6 25.6l0 0q0 25.6-25.6 25.6l-230.4 0q-25.6 0-25.6-25.6l0 0q0-25.6 25.6-25.6Z" fill="#19c975" p-id="13465"></path><path d="M563.2 704m25.6 0l128 0q25.6 0 25.6 25.6l0 0q0 25.6-25.6 25.6l-128 0q-25.6 0-25.6-25.6l0 0q0-25.6 25.6-25.6Z" fill="#19c975" p-id="13466"></path><path d="M460.8 64m51.2 0l0 0q51.2 0 51.2 51.2l0 76.8q0 51.2-51.2 51.2l0 0q-51.2 0-51.2-51.2l0-76.8q0-51.2 51.2-51.2Z" fill="#19c975" p-id="13467"></path></svg>