<svg t="1692782906747" class="icon" viewBox="0 0 1024 1024" version="1.1" xmlns="http://www.w3.org/2000/svg" p-id="20470" width="16" height="16"><path d="M509.58336 512m-509.58336 0a509.58336 509.58336 0 1 0 1019.16672 0 509.58336 509.58336 0 1 0-1019.16672 0Z" fill="#17C492" p-id="20471"></path><path d="M690.54464 664.43264l3.31776 3.35872 64.90112 64.88064h-129.80224l-113.7664 0.12288H512c-136.27392 0-246.784-98.87744-246.784-220.79488 0-121.93792 110.51008-220.79488 246.784-220.79488 136.27392 0 246.80448 98.85696 246.80448 220.79488 0.08192 59.16672-25.92768 112.86528-68.25984 152.43264zM589.96736 550.912A38.95296 38.95296 0 0 0 628.9408 512a38.99392 38.99392 0 0 0-38.97344-38.93248 38.912 38.912 0 1 0 0 77.84448z m-155.8528 0a38.93248 38.93248 0 1 0 0-77.88544 38.93248 38.93248 0 0 0 0 77.88544z" fill="#FFFFFF" p-id="20472"></path></svg>