<?xml version="1.0" standalone="no"?><!DOCTYPE svg PUBLIC "-//W3C//DTD SVG 1.1//EN" "http://www.w3.org/Graphics/SVG/1.1/DTD/svg11.dtd"><svg t="1688554665935" class="icon" viewBox="0 0 1024 1024" version="1.1" xmlns="http://www.w3.org/2000/svg" p-id="94127" xmlns:xlink="http://www.w3.org/1999/xlink" width="16" height="16"><path d="M0 512a512 512 0 1 0 1024 0A512 512 0 1 0 0 512z" fill="#1ABC9C" p-id="94128"></path><path d="M809.29 421.574c0-10.702-6.243-20.216-17.243-26.161L541.134 254.794c-8.026-4.459-18.729-6.837-29.134-6.837-10.405 0-21.108 2.378-29.134 6.837L231.953 395.115c-11 6.243-17.243 15.757-17.243 26.46 0 10.702 6.243 20.215 17.243 26.16l74.322 41.621-0.297 5.054v187.871c0 0.892 0 1.784 0.297 2.676v0.594c2.378 33 36.567 53.81 64.81 65.107 37.458 15.162 88.89 23.783 140.915 23.783 98.106 0 203.644-31.81 206.022-90.97V494.41l-0.297-5.055 4.46-2.675 50.241-28.243v235.454c0 9.216 7.433 16.648 16.649 16.648s16.648-7.432 16.648-16.648V436.736c0-0.595 0-1.19-0.297-1.784 2.675-4.162 3.864-8.621 3.864-13.378zM684.428 682.281c-0.297 19.324-34.485 34.189-49.35 39.54-33.594 12.486-77.295 19.324-123.078 19.324s-89.484-6.838-123.078-19.324c-14.865-5.649-49.053-20.513-49.35-39.837V507.788l143.59 80.269c8.028 4.46 18.433 6.837 29.135 6.837h1.487c10.108-0.297 19.918-2.675 27.648-6.837l143.591-80.269-0.595 174.51zM524.783 559.203c-2.972 1.784-7.73 2.676-12.783 2.676s-9.513-0.892-12.783-2.676l-245.86-137.629 245.86-137.645c2.972-1.784 7.73-2.676 12.783-2.676s9.81 0.892 12.783 2.676l245.86 137.645-245.86 137.646z" fill="#FFFFFF" p-id="94129"></path></svg>