<svg t="1692183597679" class="icon" viewBox="0 0 1024 1024" version="1.1" xmlns="http://www.w3.org/2000/svg" p-id="115492" width="16" height="16"><path d="M26.46016 227.04128a204.8 204.8 0 0 1 204.8-204.8h573.44a204.8 204.8 0 0 1 204.8 204.8v573.44a204.8 204.8 0 0 1-204.8 204.8h-573.44a204.8 204.8 0 0 1-204.8-204.8v-573.44z" fill="#1ABF8B" p-id="115493"></path><path d="M502.82496 653.55776H344.4736a25.51808 25.51808 0 0 1-26.37824-25.8048c0-14.7456 11.264-25.68192 26.37824-25.68192h158.47424c15.07328 0 26.37824 11.0592 26.37824 25.72288s-11.30496 25.76384-26.46016 25.76384zM344.4736 495.4112h215.04c15.07328 0 26.4192 11.0592 26.4192 25.72288 0 14.7456-11.30496 25.72288-26.4192 25.72288H344.4736c-15.07328 0-26.37824-11.0592-26.37824-25.72288-0.08192-14.66368 11.264-25.72288 26.37824-25.72288z m0-110.30528h275.41504c15.07328 0 26.4192 11.0592 26.4192 25.8048 0 14.70464-11.30496 25.64096-26.4192 25.64096H344.43264c-15.07328 0-26.37824-11.01824-26.37824-25.68192-0.08192-14.7456 11.264-25.76384 26.37824-25.76384z m192.43008 279.38816c0-80.93696 67.9936-147.12832 150.97856-147.12832 11.264 0 22.60992 0 33.95584 3.6864V301.34272c0-47.84128-41.5744-74.3424-94.37184-74.3424h-301.8752c-52.87936 0-94.33088 26.50112-94.33088 74.3424v424.7552c0 47.80032 41.45152 74.3424 94.33088 74.3424h305.64352c-52.8384-21.9136-94.33088-73.5232-94.33088-135.9872z m218.84928-33.01376s0 3.6864 0 0l-7.5776 7.3728h-7.5776l-26.37824-25.76384v-7.3728l7.53664-7.3728h7.49568l26.4192 25.8048 0.08192 7.3728z m-22.65088 22.07744l-71.68 69.75488s-3.80928 3.6864-7.5776 3.6864l-33.95584 3.64544c-3.76832 0-3.76832 0-3.76832-3.6864l3.76832-33.05472c0-3.64544 0-3.64544 3.76832-7.3728l71.68-69.8368h7.5776l26.4192 25.68192c7.5776 7.49568 7.5776 7.49568 3.76832 11.18208z m-45.30176-99.28704c-64.14336 0-116.9408 51.48672-116.9408 113.99168 0 62.54592 52.8384 114.03264 116.9408 114.03264s116.9408-51.48672 116.9408-114.03264-52.79744-113.99168-116.9408-113.99168z" fill="#FFFFFF" p-id="115494"></path></svg>