<?xml version="1.0" standalone="no"?><!DOCTYPE svg PUBLIC "-//W3C//DTD SVG 1.1//EN" "http://www.w3.org/Graphics/SVG/1.1/DTD/svg11.dtd"><svg t="1688621801600" class="icon" viewBox="0 0 1024 1024" version="1.1" xmlns="http://www.w3.org/2000/svg" p-id="8189" width="16" height="16" xmlns:xlink="http://www.w3.org/1999/xlink"><path d="M512 0c452.413793 0 512 59.586207 512 512s-59.586207 512-512 512-512-59.586207-512-512S59.586207 0 512 0z" fill="#57A1C4" p-id="8190"></path><path d="M220.689655 768m26.482759 0l529.655172 0q26.482759 0 26.482759 26.482759l0 0q0 26.482759-26.482759 26.482758l-529.655172 0q-26.482759 0-26.482759-26.482758l0 0q0-26.482759 26.482759-26.482759Z" fill="#FFFFFF" p-id="8191"></path><path d="M423.724138 670.896552h176.551724v44.137931H423.724138z" fill="#E8F2F7" p-id="8192"></path><path d="M838.62069 220.689655H185.37931a52.965517 52.965517 0 0 0-52.965517 52.965517v388.413794a52.965517 52.965517 0 0 0 52.965517 52.965517h238.344828v52.965517h176.551724v-52.965517h238.344828a52.965517 52.965517 0 0 0 52.965517-52.965517V273.655172a52.965517 52.965517 0 0 0-52.965517-52.965517zM392.033103 517.826207a17.655172 17.655172 0 0 1-24.982069 24.982069l-62.411034-62.411035a17.655172 17.655172 0 0 1 0-24.982069l62.411034-62.411034a17.655172 17.655172 0 0 1 24.982069 24.982069L342.157241 467.862069z m57.467587-3.61931l99.928276-99.928276a17.655172 17.655172 0 0 1 24.982068 24.982069L474.571034 539.10069a17.655172 17.655172 0 0 1-24.982068-24.982069z m269.153103-33.809656l-62.411034 62.411035a17.655172 17.655172 0 0 1-24.982069-24.982069L681.224828 467.862069l-49.964138-49.964138a17.655172 17.655172 0 0 1 24.982069-24.982069l62.411034 62.411035a17.655172 17.655172 0 0 1 0 24.982069z" fill="#ABD0E2" p-id="8193"></path><path d="M812.137931 264.827586H211.862069a35.310345 35.310345 0 0 0-35.310345 35.310345v335.448276a35.310345 35.310345 0 0 0 35.310345 35.310345h600.275862a35.310345 35.310345 0 0 0 35.310345-35.310345V300.137931a35.310345 35.310345 0 0 0-35.310345-35.310345zM392.033103 517.826207a17.655172 17.655172 0 0 1-24.982069 24.982069l-62.411034-62.411035a17.655172 17.655172 0 0 1 0-24.982069l62.411034-62.411034a17.655172 17.655172 0 0 1 24.982069 24.982069L342.157241 467.862069z m182.377931-78.565517L474.571034 539.10069a17.655172 17.655172 0 0 1-24.982068-24.982069l99.84-99.84a17.655172 17.655172 0 0 1 24.982068 24.982069z m144.242759 41.136551l-62.411034 62.411035a17.655172 17.655172 0 0 1-24.982069-24.982069L681.224828 467.862069l-49.964138-49.964138a17.655172 17.655172 0 0 1 24.982069-24.982069l62.411034 62.411035a17.655172 17.655172 0 0 1 0 24.982069z" fill="#FFFFFF" p-id="8194"></path><path d="M423.724138 670.896552h176.551724v44.137931H423.724138z" fill="#CBE5EF" p-id="8195"></path></svg>