<svg width="16" height="16" xmlns="http://www.w3.org/2000/svg" p-id="137857" version="1.1" class="icon" t="1688555622951">

 <g>
  <title>Layer 1</title>
  <path stroke="null" id="svg_1" p-id="137858" fill="#18DFB7" d="m733.43821,0l-438.92574,0c-161.59783,0 -292.61716,131.01933 -292.61716,292.61716l0,438.92574c0,161.59783 131.01933,292.61716 292.61716,292.61716l438.92574,0c161.59783,0 292.61716,-131.01933 292.61716,-292.61716l0,-438.92574c0,-161.59783 -131.01933,-292.61716 -292.61716,-292.61716z"/>
  <path id="svg_2" p-id="137859" fill="#FFFFFF" d="m361.33183,441.4l193.61792,0l0,39.87456l-193.61792,0l0,-39.87456zm-73.89184,267.32544l389.12,0l0,39.87456l-389.12,0l0,-39.87456zm73.89184,-200.43776l152.9856,0l0,39.87456l-152.9856,0l0,-39.87456zm0,62.79168l122.63424,0l0,39.87456l-122.63424,0l0,-39.87456z"/>
  <path id="svg_3" p-id="137860" fill="#FFFFFF" d="m327.23053,696.32001l-40.50944,0l0,-294.87104l83.0464,-84.00896l261.67296,0l0,122.88l-40.63232,0l0,-81.83808l-204.71808,0l-58.85952,59.33056l0,278.528l0,-0.02048zm188.6208,10.24c-6.06208,0 -11.14112,-2.048 -15.17568,-6.144c-6.08256,-6.144 -7.08608,-15.33952 -4.05504,-22.50752l18.2272,-44.99456c3.03104,-7.168 9.1136,-12.288 16.19968,-13.312c7.08608,-1.024 14.17216,1.024 19.2512,6.144l22.28224,23.53152l116.59264,-119.808l-38.5024,-39.91552l-83.1488,84.00896l-28.3648,-28.63104l95.31392,-96.29696c8.11008,-8.192 23.30624,-8.192 31.39584,0l64.96256,65.59744c9.09312,9.216 8.0896,23.552 0,31.72352l-142.06976,144.22016c-4.05504,4.096 -10.1376,6.144 -16.19968,6.144c-5.07904,0 -11.14112,-2.048 -16.19968,-6.144l-13.16864,-14.336l7.08608,20.48l-27.3408,9.19552c-2.048,0 -4.05504,1.024 -7.10656,1.024l0.02048,0.02048z"/>
 </g>
</svg>