<svg t="1697091666938" class="icon" viewBox="0 0 1024 1024" version="1.1" xmlns="http://www.w3.org/2000/svg" p-id="7551" width="128" height="128"><path d="M512 928a296.16 296.16 0 0 1-240-469.28l1.76-2.4L194.4 352a28.96 28.96 0 0 1-5.76-16V124.48A28.16 28.16 0 0 1 216.8 96h590.24a28.16 28.16 0 0 1 28.32 28.16V336a28.48 28.48 0 0 1-5.76 16l-78.72 103.84 1.6 2.4a293.6 293.6 0 0 1 55.68 172.64A296.64 296.64 0 0 1 512 928z m0-545.44a249.12 249.12 0 1 0 248.96 248.8A249.44 249.44 0 0 0 512 382.24zM240 144a4.32 4.32 0 0 0-4.32 4.32V324.8a13.28 13.28 0 0 0 2.4 7.68L304 419.84l3.04-2.88a295.36 295.36 0 0 1 408.32 0l3.2 2.88 66.24-87.36a13.28 13.28 0 0 0 2.4-7.68v-176A4.32 4.32 0 0 0 784 144h-144v145.28a23.68 23.68 0 0 1-47.2 0V144H430.24v144A23.52 23.52 0 1 1 384 288V144z" p-id="7552"></path><path d="M416 812.32a32 32 0 0 1-19.2-6.24 32.96 32.96 0 0 1-13.12-32l15.2-88.96-65.12-64a33.6 33.6 0 0 1-8.32-33.92A32.96 32.96 0 0 1 352 563.68l89.44-12.96 41.12-81.92a33.12 33.12 0 0 1 59.36 0l40 80.96 90.56 13.92a33.12 33.12 0 0 1 18.24 56.48l-64 63.04 13.28 90.4a32.8 32.8 0 0 1-13.12 32 34.08 34.08 0 0 1-19.52 6.24 32 32 0 0 1-16-3.84l-80-41.92-81.44 42.08a33.44 33.44 0 0 1-13.92 4.16z m60.8-225.92a16 16 0 0 1-12.16 8.64l-78.08 11.36 56.64 55.2a16 16 0 0 1 4.48 13.92l-13.28 78.24 70.08-36.96a16 16 0 0 1 14.72 0l70.08 36.8-13.28-77.92a16 16 0 0 1 4.48-14.08l54.4-53.6 1.6-2.24 1.28-1.76-5.28-1.12v2.4l-74.88-10.88a16 16 0 0 1-12.16-8.8L512 515.36z" p-id="7553"></path></svg>