<svg t="1696831413779" class="icon" viewBox="0 0 1024 1024" version="1.1" xmlns="http://www.w3.org/2000/svg" p-id="50614" width="128" height="128"><path d="M128 192V768h362.666667V320a128 128 0 0 0-128-128H128z m0-42.666667h234.666667a170.666667 170.666667 0 0 1 170.666666 170.666667V768a42.666667 42.666667 0 0 1-42.666666 42.666667H128a42.666667 42.666667 0 0 1-42.666667-42.666667V192a42.666667 42.666667 0 0 1 42.666667-42.666667z" p-id="50615"></path><path d="M896 192V768h-362.666667V320a128 128 0 0 1 128-128H896z m0-42.666667h-234.666667a170.666667 170.666667 0 0 0-170.666666 170.666667V768a42.666667 42.666667 0 0 0 42.666666 42.666667H896a42.666667 42.666667 0 0 0 42.666667-42.666667V192a42.666667 42.666667 0 0 0-42.666667-42.666667z" p-id="50616"></path><path d="M170.666667 853.333333h682.666666v42.666667H170.666667zM256 384h128v42.666667H256zM640 384h128v42.666667h-128zM256 512h128v42.666667H256zM640 512h128v42.666667h-128z"  p-id="50617"></path></svg>