<svg t="1696831599849" class="icon" viewBox="0 0 1024 1024" version="1.1" xmlns="http://www.w3.org/2000/svg" p-id="55785" width="128" height="128"><path d="M109.568 1018.88l-7.168-22.016c-1.024-2.56-19.968-59.904-36.352-126.464-9.728-39.424-16.384-73.216-20.48-101.376-5.12-37.888-4.096-65.024 2.56-82.944 4.608-11.776 17.92-32.768 40.96-52.224 28.672-24.064 64.512-38.912 102.912-43.008 12.288-1.536 23.04 7.68 24.576 19.456 1.536 12.288-7.68 23.04-19.456 24.576-71.168 7.68-103.936 57.344-107.52 67.072-3.584 9.728-9.216 44.544 18.944 158.208 10.24 40.448 21.504 78.336 28.16 100.864 61.952-22.528 240.64-82.432 363.52-82.432 123.904 0 303.616 60.928 364.544 82.944 9.216-24.576 25.6-68.608 39.936-115.2 39.424-126.976 29.696-155.648 27.136-160.256-4.608-7.168-47.616-46.08-132.096-51.2-12.288-1.024-21.504-11.264-20.992-23.552 1.024-12.288 11.264-21.504 23.552-20.992 52.736 3.072 91.136 18.432 114.688 30.208 25.6 13.312 45.568 29.696 53.248 43.52 10.24 18.432 18.944 58.368-23.552 195.584-22.016 71.68-48.128 135.68-49.152 138.24l-8.192 20.48-20.48-7.68c-2.048-0.512-230.4-87.552-369.664-87.552s-367.104 86.528-369.664 87.552l-19.968 8.192z" p-id="55786"></path><path d="M694.784 684.544l-188.416-97.28-193.536 90.112-13.312-9.728c-7.168-5.12-13.312-9.728-18.944-14.336l-12.8-10.24L302.08 434.176 156.16 277.504l4.608-15.872c2.56-7.68 5.12-14.848 7.68-22.528l6.144-15.36L384 191.488 487.936 5.12h21.504c7.168 0 13.312 0 18.944 0.512l16.384 1.024 95.232 189.44 209.408 40.96 5.12 15.36c3.072 8.192 5.12 16.384 6.656 22.528l4.608 15.872-150.528 148.992 25.6 211.968-12.8 9.728c-6.144 4.608-12.288 8.704-19.456 13.824l-13.824 9.216z m-186.88-160.768l171.008 88.576-23.552-193.024 137.216-135.68-190.976-37.376-86.528-172.032-94.72 169.984-190.464 29.184 132.608 142.336-31.232 190.464 176.64-82.432z" p-id="55787"></path></svg>