<svg t="1696832796691" class="icon" viewBox="0 0 1024 1024" version="1.1" xmlns="http://www.w3.org/2000/svg" p-id="93302" width="128" height="128"><path d="M544 213.333333c29.44 0 53.333333 23.893333 53.333333 53.333334V341.333333h138.666667c27.605333 0 50.346667 20.992 53.077333 47.872l0.256 5.461334v352h21.333334a21.333333 21.333333 0 0 1 21.333333 21.333333v21.333333a21.333333 21.333333 0 0 1-21.333333 21.333334H213.333333a21.333333 21.333333 0 0 1-21.333333-21.333334V768a21.333333 21.333333 0 0 1 21.333333-21.333333h21.333334V266.666667c0-27.605333 20.992-50.346667 47.872-53.077334L288 213.333333h256z m-10.666667 64H298.666667v469.333334h234.666666v-469.333334z m192 128h-128v341.333334h128v-341.333334z m-256 85.333334a21.333333 21.333333 0 0 1 21.333334 21.333333v21.333333a21.333333 21.333333 0 0 1-21.333334 21.333334H362.666667a21.333333 21.333333 0 0 1-21.333334-21.333334V512a21.333333 21.333333 0 0 1 21.333334-21.333333H469.333333z m0-128a21.333333 21.333333 0 0 1 21.333334 21.333333v21.333333a21.333333 21.333333 0 0 1-21.333334 21.333334H362.666667a21.333333 21.333333 0 0 1-21.333334-21.333334V384a21.333333 21.333333 0 0 1 21.333334-21.333333H469.333333z"  p-id="93303"></path></svg>