<svg t="1696831570543" class="icon" viewBox="0 0 1024 1024" version="1.1" xmlns="http://www.w3.org/2000/svg" p-id="54771" width="128" height="128"><path d="M140.8 144.896c-45.056 0-81.408 36.352-81.408 81.408v523.776c0 45.056 36.352 80.896 80.896 80.896h742.912c45.056 0 80.896-36.352 80.896-80.896V225.792c0-45.056-36.352-81.408-81.408-81.408h-82.432c-8.704 0-15.872 7.168-15.872 15.872v26.112c0 8.704 7.168 15.872 15.872 15.872h57.856c26.624 0 47.616 21.504 47.616 47.616v475.136c0 26.624-21.504 47.616-47.616 47.616H165.376c-26.624 0-47.616-21.504-47.616-47.616V250.368c0-26.624 21.504-47.616 47.616-47.616h58.368c8.704 0 15.872-7.168 15.872-15.872v-26.112c0-8.704-7.168-15.872-15.872-15.872H140.8z" p-id="54772"></path><path d="M267.776 624.128h489.472c8.704 0 15.872-7.168 15.872-15.872v-26.624c0-8.704-7.168-15.872-15.872-15.872H267.776c-8.704 0-15.872 7.168-15.872 15.872v26.624c0.512 9.216 7.168 15.872 15.872 15.872zM267.776 429.568h489.472c8.704 0 15.36-7.168 15.36-15.36v-26.624c0-8.704-7.168-15.36-15.36-15.36H267.776c-8.704 0-15.36 7.168-15.36 15.36v26.624c0 8.192 6.656 15.36 15.36 15.36zM699.392 275.456h28.16c8.192 0 14.848-6.656 14.848-14.848v-174.08c0-8.192-6.656-14.848-14.848-14.848h-28.16c-8.192 0-14.848 6.656-14.848 14.848v174.08c0 8.192 6.656 14.848 14.848 14.848zM293.376 275.456h27.136c8.704 0 15.36-6.656 15.36-15.36V87.04c0-8.704-6.656-15.36-15.36-15.36h-27.136c-8.704 0-15.36 6.656-15.36 15.36v173.056c0 8.704 6.656 15.36 15.36 15.36zM390.144 202.24H634.88c8.704 0 15.872-7.168 15.872-15.872v-25.6c0-8.704-7.168-15.872-15.872-15.872H390.144c-8.704 0-15.872 7.168-15.872 15.872v25.6c-0.512 9.216 6.656 15.872 15.872 15.872z" p-id="54773"></path></svg>