<svg t="1696831185172" class="icon" viewBox="0 0 1024 1024" version="1.1" xmlns="http://www.w3.org/2000/svg" p-id="47853" width="128" height="128"><path d="M805 246.2h-97.2c-24-103.1-101.5-178.9-193.4-178.9S344.9 143.1 321 246.2h-74.9c-12.3 0-22.4 10-22.4 22.4 0 12.3 10 22.4 22.4 22.4h68c-0.5 7.4-0.9 14.8-0.9 22.4 0 103.9 53.1 192.8 127.8 228.7-116.7 33.5-207.9 144.8-232.5 285.1-1.1 6-2 12.1-2.8 18.2-1.2 8.7-2.3 17.4-2.9 26.3 0 0.2 0 0.4-0.1 0.5H826c-7.8-112.6-58.2-210.9-131.7-272.7-1.6-1.3-3.2-2.7-4.8-4-5.3-4.3-10.7-8.4-16.2-12.2-26.3-18.5-55-32.5-85.5-41.3 74.7-36 127.8-124.8 127.8-228.7 0-7.5-0.4-15-0.9-22.4H805c12.3 0 22.4-10 22.4-22.4 0-12.3-10-22.3-22.4-22.3zM514.4 112c68 0 125.8 56.1 147.4 134.1H367C388.6 168.2 446.4 112 514.4 112z m17.3 617.8c-52.6-31.5-99.2-71.8-138.1-118.7C429.9 588.7 471 576 514.4 576c55.8 0 107.4 21.1 150.4 56.7-5.6-4.6-11.4-9-17.3-13.2-32.9 42.3-72 79.4-115.8 110.3z m-173.6-92.1c37.8 45.9 82.5 85.7 132.5 118.2-70.5 40.6-150.9 65.8-236.7 70.6 15.2-77.1 52.9-143.7 104.2-188.8zM253.7 827.5c0.1-0.3 0.1-0.6 0.2-0.9-0.1 0.3-0.1 0.6-0.2 0.9z m192.8 0c93.1-38.8 174.1-101 235.4-179.4 45.8 44.8 79.2 107.5 93.2 179.4H446.5z m219.3-194c5.5 4.6 10.9 9.4 16.1 14.5-5.2-5-10.6-9.8-16.1-14.5z m5.1-320.2c0 110.9-70.2 201.2-156.5 201.2s-156.5-90.3-156.5-201.2c0-7.6 0.4-15 1-22.4h311c0.6 7.4 1 14.8 1 22.4z" p-id="47854"></path></svg>