<svg t="1697092188648" class="icon" viewBox="0 0 1024 1024" version="1.1" xmlns="http://www.w3.org/2000/svg" p-id="15622" width="128" height="128"><path d="M512 962.08a296 296 0 0 1-240-468.8l1.76-2.4-78.56-103.84a28.16 28.16 0 0 1-5.76-16.96V159.04a28.16 28.16 0 0 1 28.16-28.16h589.44a28.16 28.16 0 0 1 28.32 28.16v210.88a28.16 28.16 0 0 1-5.76 16.96l-78.72 104 1.6 2.24A296.16 296.16 0 0 1 512 962.08zM512 416a249.28 249.28 0 1 0 248.96 249.92A249.44 249.44 0 0 0 512 416zM240 177.92a4.32 4.32 0 0 0-4.32 4.32v177.12a12.48 12.48 0 0 0 2.4 7.52L304 454.4l3.04-3.04a295.36 295.36 0 0 1 408.32 0l3.2 3.04 66.24-87.52a12.48 12.48 0 0 0 2.4-7.52V182.4a4.32 4.32 0 0 0-4.32-4.32H640v145.28a23.68 23.68 0 0 1-47.2 0v-145.44H430.24v145.28a23.52 23.52 0 1 1-47.04 0v-145.28z" p-id="15623"></path><path d="M400 820.16v-123.52a410.72 410.72 0 0 1-27.04 56.32 8.96 8.96 0 0 1 0-1.12c-3.68-25.28-6.56-43.2-8.48-53.92a368 368 0 0 0 35.04-80h-30.4v-36.32H400v-55.84h36.32v55.84h26.08v35.84h-26.08v29.76l35.2 29.76-17.92 32-17.28-17.6v128z m74.56 0c-5.76-10.4-13.28-22.56-22.4-36.16A274.24 274.24 0 0 0 528 747.36a241.92 241.92 0 0 1-36.16-65.12l32.8-14.4a226.56 226.56 0 0 0 30.24 53.76 173.28 173.28 0 0 0 28.8-54.72l34.24 12.32a257.44 257.44 0 0 1-36 68.16 240 240 0 0 0 71.52 32c-6.88 10.56-14.56 23.04-23.04 37.12a293.92 293.92 0 0 1-75.2-41.76 311.52 311.52 0 0 1-80.64 45.76z m7.52-135.2c-6.4-8.64-13.76-18.08-22.4-28.32a383.04 383.04 0 0 0 61.92-54.56l25.44 24.48a803.2 803.2 0 0 1-64.96 58.72z m-11.2-83.52v-35.68h70.08c0-1.28-0.96-3.36-1.6-5.92-3.52-12.8-6.56-22.72-8.8-29.44l39.52-4.64c3.2 12.16 6.56 25.44 9.92 40h67.36v36z m160 81.12c-26.72-24.16-48-42.56-64-55.36l23.04-25.12q35.52 27.68 62.4 51.52z"  p-id="15624"></path></svg>