<?xml version="1.0" standalone="no"?><!DOCTYPE svg PUBLIC "-//W3C//DTD SVG 1.1//EN" "http://www.w3.org/Graphics/SVG/1.1/DTD/svg11.dtd"><svg t="1688549240067" class="icon" viewBox="0 0 1024 1024" version="1.1" xmlns="http://www.w3.org/2000/svg" p-id="64454" xmlns:xlink="http://www.w3.org/1999/xlink" width="50" height="50"><path d="M0 509.44c0 281.6 228.352 509.44 509.44 509.44S1018.88 790.528 1018.88 509.44 791.04 0 509.44 0 0 228.352 0 509.44z" fill="#0AC9AA" p-id="64455"></path><path d="M713.728 784.896H305.664c-21.504 0-38.912-17.408-38.912-38.4V273.408c0-21.504 17.408-38.4 38.912-38.4h407.552c21.504 0 38.912 17.408 38.912 38.4v473.088c0 20.992-17.408 38.4-38.4 38.4" fill="#FFFFFF" p-id="64456"></path><path d="M422.4 507.904c7.68-0.512 15.36 3.072 18.944 9.728l63.488 109.056 47.104-61.952c4.096-5.12 9.728-8.192 16.384-7.68 6.656 0 12.288 3.072 15.872 8.192l20.48 28.672h69.12c10.752-0.512 19.968 7.168 20.48 17.408 0.512 10.24-7.68 18.944-18.432 19.456h-81.408c-6.656 0-12.288-3.072-16.384-8.192l-10.24-14.336-49.152 64c-4.096 5.12-9.728 7.68-15.872 7.68H501.76c-6.656-0.512-12.8-4.096-15.872-9.728l-56.832-97.792-11.776 33.28c-3.072 7.68-10.24 12.8-18.432 12.8h-56.32c-10.752-0.512-18.944-9.728-17.92-19.968 1.024-10.24 10.24-17.92 20.992-16.896H384l21.504-60.928c3.072-7.168 9.728-12.288 16.896-12.8z m256-60.928c9.216 0 16.384 9.728 16.384 21.504 0 11.776-7.168 21.504-16.384 21.504h-142.336c-9.216 0-16.384-9.728-16.384-21.504 0-11.776 7.168-21.504 16.384-21.504h142.336zM433.664 339.968c14.848 0 27.136 12.8 27.136 28.672v71.68c0 15.872-12.288 28.672-27.136 28.672h-81.92c-14.848 0-27.136-12.8-27.136-28.672V368.64c0-15.872 12.288-28.672 27.136-28.672h81.92z m240.64 25.088c11.264 0 20.48 9.728 20.48 21.504 0 11.776-9.216 21.504-20.48 21.504H578.56c-11.264 0-20.48-9.728-20.48-21.504 0-11.776 9.216-21.504 20.48-21.504h95.744z" fill="#0AC9AA" p-id="64457"></path></svg>