<?xml version="1.0" standalone="no"?><!DOCTYPE svg PUBLIC "-//W3C//DTD SVG 1.1//EN" "http://www.w3.org/Graphics/SVG/1.1/DTD/svg11.dtd"><svg t="1686397609442" class="icon" viewBox="0 0 1025 1024" version="1.1" xmlns="http://www.w3.org/2000/svg" p-id="8425" xmlns:xlink="http://www.w3.org/1999/xlink" width="48.046875" height="48"><path d="M984.7 314c-25.7-60.8-62.6-115.5-109.5-162.4-46.9-46.9-101.5-83.7-162.4-109.5C649.9 15.5 583 2 514 2S378.1 15.5 315.1 42.2c-60.8 25.7-115.5 62.6-162.4 109.5C105.9 198.5 69 253.2 43.3 314 16.7 377 3.2 443.9 3.2 512.8c0 69 13.5 135.9 40.2 198.9 25.7 60.8 62.6 115.5 109.5 162.4 46.9 46.9 101.5 83.7 162.4 109.5 63 26.6 129.9 40.2 198.9 40.2s135.9-13.5 198.9-40.2c60.8-25.7 115.5-62.6 162.4-109.5 46.9-46.9 83.7-101.5 109.5-162.4 26.6-63 40.2-129.9 40.2-198.9-0.4-68.9-13.9-135.8-40.5-198.8zM514 983.7c-259.6 0-470.8-211.2-470.8-470.8S254.4 42 514 42s470.8 211.2 470.8 470.8S773.6 983.7 514 983.7z" fill="#e0620d" p-id="8426"></path><path d="M403.6 365.3H162.7c-14.4 0-24 12.4-24 24v12c0 9.1 5.8 16.7 17.3 22.4l3.2 1.6h244.4c14.4 0 24-12.4 24-24v-12c0-14.3-12.4-24-24-24zM403.6 491.8H162.7c-14.4 0-24 12.4-24 24v12c0 11.6 9.7 24 24 24h240.9c14.4 0 24-12.4 24-24v-12c0-14.3-12.4-24-24-24zM403.6 618.3H162.7c-14.4 0-24 12.4-24 24v12c0 9.1 5.8 16.7 17.3 22.5l3.2 1.6h244.4c14.4 0 24-12.4 24-24v-12c0-14.4-12.4-24.1-24-24.1zM749.4 512.5c31.8-22.8 52.6-60 52.6-102 0-69.1-56.3-125.4-125.4-125.4s-125.4 56.3-125.4 125.4c0 38.5 17.5 73 44.9 96.1-90.6 29-156.3 114-156.3 214.1h40c0-101.9 82.9-184.8 184.8-184.8s184.8 82.9 184.8 184.8h40c-0.1-94-58-174.6-140-208.2z m-72.8-187.4c47.1 0 85.4 38.3 85.4 85.4s-38.3 85.4-85.4 85.4-85.4-38.3-85.4-85.4 38.3-85.4 85.4-85.4z" fill="#e0620d" p-id="8427"></path></svg>