<svg id="visual" viewBox="0 0 900 600" width="900" height="600" xmlns="http://www.w3.org/2000/svg" xmlns:xlink="http://www.w3.org/1999/xlink" version="1.1"><path d="M665 600L680 590.8C695 581.7 725 563.3 704 545.2C683 527 611 509 614 490.8C617 472.7 695 454.3 704 436.2C713 418 653 400 641 381.8C629 363.7 665 345.3 659 327.2C653 309 605 291 609.5 272.8C614 254.7 671 236.3 702.5 218.2C734 200 740 182 749 163.8C758 145.7 770 127.3 756.5 109.2C743 91 704 73 695 54.8C686 36.7 707 18.3 717.5 9.2L728 0L900 0L900 9.2C900 18.3 900 36.7 900 54.8C900 73 900 91 900 109.2C900 127.3 900 145.7 900 163.8C900 182 900 200 900 218.2C900 236.3 900 254.7 900 272.8C900 291 900 309 900 327.2C900 345.3 900 363.7 900 381.8C900 400 900 418 900 436.2C900 454.3 900 472.7 900 490.8C900 509 900 527 900 545.2C900 563.3 900 581.7 900 590.8L900 600Z" fill="#007d67"></path><path d="M548 600L563 590.8C578 581.7 608 563.3 597.5 545.2C587 527 536 509 548 490.8C560 472.7 635 454.3 639.5 436.2C644 418 578 400 552.5 381.8C527 363.7 542 345.3 530 327.2C518 309 479 291 489.5 272.8C500 254.7 560 236.3 594.5 218.2C629 200 638 182 641 163.8C644 145.7 641 127.3 630.5 109.2C620 91 602 73 603.5 54.8C605 36.7 626 18.3 636.5 9.2L647 0L729 0L718.5 9.2C708 18.3 687 36.7 696 54.8C705 73 744 91 757.5 109.2C771 127.3 759 145.7 750 163.8C741 182 735 200 703.5 218.2C672 236.3 615 254.7 610.5 272.8C606 291 654 309 660 327.2C666 345.3 630 363.7 642 381.8C654 400 714 418 705 436.2C696 454.3 618 472.7 615 490.8C612 509 684 527 705 545.2C726 563.3 696 581.7 681 590.8L666 600Z" fill="#1fb194"></path><path d="M404 600L417.5 590.8C431 581.7 458 563.3 441.5 545.2C425 527 365 509 362 490.8C359 472.7 413 454.3 413 436.2C413 418 359 400 342.5 381.8C326 363.7 347 345.3 335 327.2C323 309 278 291 290 272.8C302 254.7 371 236.3 414.5 218.2C458 200 476 182 485 163.8C494 145.7 494 127.3 470 109.2C446 91 398 73 399.5 54.8C401 36.7 452 18.3 477.5 9.2L503 0L648 0L637.5 9.2C627 18.3 606 36.7 604.5 54.8C603 73 621 91 631.5 109.2C642 127.3 645 145.7 642 163.8C639 182 630 200 595.5 218.2C561 236.3 501 254.7 490.5 272.8C480 291 519 309 531 327.2C543 345.3 528 363.7 553.5 381.8C579 400 645 418 640.5 436.2C636 454.3 561 472.7 549 490.8C537 509 588 527 598.5 545.2C609 563.3 579 581.7 564 590.8L549 600Z" fill="#47c5ab"></path><path d="M134 600L134 590.8C134 581.7 134 563.3 125 545.2C116 527 98 509 102.5 490.8C107 472.7 134 454.3 143 436.2C152 418 143 400 143 381.8C143 363.7 152 345.3 140 327.2C128 309 95 291 78.5 272.8C62 254.7 62 236.3 75.5 218.2C89 200 116 182 126.5 163.8C137 145.7 131 127.3 134 109.2C137 91 149 73 141.5 54.8C134 36.7 107 18.3 93.5 9.2L80 0L504 0L478.5 9.2C453 18.3 402 36.7 400.5 54.8C399 73 447 91 471 109.2C495 127.3 495 145.7 486 163.8C477 182 459 200 415.5 218.2C372 236.3 303 254.7 291 272.8C279 291 324 309 336 327.2C348 345.3 327 363.7 343.5 381.8C360 400 414 418 414 436.2C414 454.3 360 472.7 363 490.8C366 509 426 527 442.5 545.2C459 563.3 432 581.7 418.5 590.8L405 600Z" fill="#1fb194"></path><path d="M0 600L0 590.8C0 581.7 0 563.3 0 545.2C0 527 0 509 0 490.8C0 472.7 0 454.3 0 436.2C0 418 0 400 0 381.8C0 363.7 0 345.3 0 327.2C0 309 0 291 0 272.8C0 254.7 0 236.3 0 218.2C0 200 0 182 0 163.8C0 145.7 0 127.3 0 109.2C0 91 0 73 0 54.8C0 36.7 0 18.3 0 9.2L0 0L81 0L94.5 9.2C108 18.3 135 36.7 142.5 54.8C150 73 138 91 135 109.2C132 127.3 138 145.7 127.5 163.8C117 182 90 200 76.5 218.2C63 236.3 63 254.7 79.5 272.8C96 291 129 309 141 327.2C153 345.3 144 363.7 144 381.8C144 400 153 418 144 436.2C135 454.3 108 472.7 103.5 490.8C99 509 117 527 126 545.2C135 563.3 135 581.7 135 590.8L135 600Z" fill="#007d67"></path></svg>